{
  "accessors": [
    {
      "bufferView": 2,
      "componentType": 5126,
      "count": 2176,
      "max": [
        9.906570434570313,
        9.752309799194336,
        7.594319820404053
      ],
      "min": [
        -9.63683032989502,
        -9.337610244750977,
        -7.599629878997803
      ],
      "type": "VEC3"
    },
    {
      "bufferView": 2,
      "byteOffset": 26112,
      "componentType": 5126,
      "count": 2176,
      "max": [
        0.9984613060951233,
        0.9996799230575562,
        0.9710412621498108
      ],
      "min": [
        -0.9997560977935791,
        -0.9982475638389587,
        -0.9797892570495605
      ],
      "type": "VEC3"
    },
    {
      "bufferView": 1,
      "componentType": 5126,
      "count": 2176,
      "max": [
        0.9992799758911133,
        0.9992499947547913
      ],
      "min": [
        0.002580000087618828,
        0.0012700000079348683
      ],
      "type": "VEC2"
    },
    {
      "bufferView": 0,
      "componentType": 5125,
      "count": 12288,
      "type": "SCALAR"
    },
    {
      "bufferView": 2,
      "byteOffset": 52224,
      "componentType": 5126,
      "count": 576,
      "max": [
        9.755620002746582,
        9.81521987915039,
        7.5464701652526855
      ],
      "min": [
        -10.130069732666016,
        -9.699179649353027,
        -7.569180011749268
      ],
      "type": "VEC3"
    },
    {
      "bufferView": 2,
      "byteOffset": 59136,
      "componentType": 5126,
      "count": 576,
      "max": [
        0.9984023571014404,
        0.9997357130050659,
        0.9699171781539917
      ],
      "min": [
        -0.9974765777587891,
        -0.9998107552528381,
        -0.9858735203742981
      ],
      "type": "VEC3"
    },
    {
      "bufferView": 1,
      "byteOffset": 17408,
      "componentType": 5126,
      "count": 576,
      "max": [
        0.9998800158500671,
        0.9998400211334229
      ],
      "min": [
        0.0024800000246614218,
        0.0006699999794363976
      ],
      "type": "VEC2"
    },
    {
      "bufferView": 0,
      "byteOffset": 49152,
      "componentType": 5125,
      "count": 3072,
      "type": "SCALAR"
    },
    {
      "bufferView": 2,
      "byteOffset": 66048,
      "componentType": 5126,
      "count": 1984,
      "max": [
        1.0,
        1.0,
        1.0
      ],
      "min": [
        -1.0,
        -1.0,
        -1.0
      ],
      "type": "VEC3"
    },
    {
      "bufferView": 2,
      "byteOffset": 89856,
      "componentType": 5126,
      "count": 1984,
      "max": [
        0.9904383420944214,
        0.9904383420944214,
        0.9951387047767639
      ],
      "min": [
        -0.9904383420944214,
        -0.9904383420944214,
        -0.9951387047767639
      ],
      "type": "VEC3"
    },
    {
      "bufferView": 0,
      "byteOffset": 61440,
      "componentType": 5125,
      "count": 2880,
      "type": "SCALAR"
    },
    {
      "bufferView": 2,
      "byteOffset": 113664,
      "componentType": 5126,
      "count": 2176,
      "max": [
        9.665410041809082,
        9.79973030090332,
        7.164939880371094
      ],
      "min": [
        -10.07373046875,
        -9.53400993347168,
        -7.222479820251465
      ],
      "type": "VEC3"
    },
    {
      "bufferView": 2,
      "byteOffset": 139776,
      "componentType": 5126,
      "count": 2176,
      "max": [
        0.9992120265960693,
        0.9998397827148438,
        0.9399003982543945
      ],
      "min": [
        -0.9988846778869629,
        -0.9996494054794312,
        -0.972561776638031
      ],
      "type": "VEC3"
    },
    {
      "bufferView": 1,
      "byteOffset": 22016,
      "componentType": 5126,
      "count": 2176,
      "max": [
        0.9992799758911133,
        0.9992499947547913
      ],
      "min": [
        0.002580000087618828,
        0.0012700000079348683
      ],
      "type": "VEC2"
    },
    {
      "bufferView": 0,
      "byteOffset": 72960,
      "componentType": 5125,
      "count": 12288,
      "type": "SCALAR"
    },
    {
      "bufferView": 2,
      "byteOffset": 165888,
      "componentType": 5126,
      "count": 2176,
      "max": [
        9.665410041809082,
        9.79973030090332,
        7.164939880371094
      ],
      "min": [
        -10.07373046875,
        -9.53400993347168,
        -7.222479820251465
      ],
      "type": "VEC3"
    },
    {
      "bufferView": 2,
      "byteOffset": 192000,
      "componentType": 5126,
      "count": 2176,
      "max": [
        0.9992120265960693,
        0.9998397827148438,
        0.9399003982543945
      ],
      "min": [
        -0.9988846778869629,
        -0.9996494054794312,
        -0.972561776638031
      ],
      "type": "VEC3"
    },
    {
      "bufferView": 1,
      "byteOffset": 39424,
      "componentType": 5126,
      "count": 2176,
      "max": [
        0.9992799758911133,
        0.9992499947547913
      ],
      "min": [
        0.002580000087618828,
        0.0012700000079348683
      ],
      "type": "VEC2"
    },
    {
      "bufferView": 0,
      "byteOffset": 122112,
      "componentType": 5125,
      "count": 12288,
      "type": "SCALAR"
    },
    {
      "bufferView": 2,
      "byteOffset": 218112,
      "componentType": 5126,
      "count": 2176,
      "max": [
        9.665410041809082,
        9.79973030090332,
        7.164939880371094
      ],
      "min": [
        -10.07373046875,
        -9.53400993347168,
        -7.222479820251465
      ],
      "type": "VEC3"
    },
    {
      "bufferView": 2,
      "byteOffset": 244224,
      "componentType": 5126,
      "count": 2176,
      "max": [
        0.9992120265960693,
        0.9998397827148438,
        0.9399003982543945
      ],
      "min": [
        -0.9988846778869629,
        -0.9996494054794312,
        -0.972561776638031
      ],
      "type": "VEC3"
    },
    {
      "bufferView": 1,
      "byteOffset": 56832,
      "componentType": 5126,
      "count": 2176,
      "max": [
        0.9992799758911133,
        0.9992499947547913
      ],
      "min": [
        0.002580000087618828,
        0.0012700000079348683
      ],
      "type": "VEC2"
    },
    {
      "bufferView": 0,
      "byteOffset": 171264,
      "componentType": 5125,
      "count": 12288,
      "type": "SCALAR"
    },
    {
      "bufferView": 2,
      "byteOffset": 270336,
      "componentType": 5126,
      "count": 2176,
      "max": [
        9.665410041809082,
        9.79973030090332,
        7.164939880371094
      ],
      "min": [
        -10.07373046875,
        -9.53400993347168,
        -7.222479820251465
      ],
      "type": "VEC3"
    },
    {
      "bufferView": 2,
      "byteOffset": 296448,
      "componentType": 5126,
      "count": 2176,
      "max": [
        0.9992120265960693,
        0.9998397827148438,
        0.9399003982543945
      ],
      "min": [
        -0.9988846778869629,
        -0.9996494054794312,
        -0.972561776638031
      ],
      "type": "VEC3"
    },
    {
      "bufferView": 1,
      "byteOffset": 74240,
      "componentType": 5126,
      "count": 2176,
      "max": [
        0.9992799758911133,
        0.9992499947547913
      ],
      "min": [
        0.002580000087618828,
        0.0012700000079348683
      ],
      "type": "VEC2"
    },
    {
      "bufferView": 0,
      "byteOffset": 220416,
      "componentType": 5125,
      "count": 12288,
      "type": "SCALAR"
    },
    {
      "bufferView": 2,
      "byteOffset": 322560,
      "componentType": 5126,
      "count": 2176,
      "max": [
        9.558159828186035,
        9.680919647216797,
        7.497829914093018
      ],
      "min": [
        -9.960969924926758,
        -9.430279731750488,
        -7.555210113525391
      ],
      "type": "VEC3"
    },
    {
      "bufferView": 2,
      "byteOffset": 348672,
      "componentType": 5126,
      "count": 2176,
      "max": [
        0.9985959529876709,
        0.9998103976249695,
        0.9683459997177124
      ],
      "min": [
        -0.999250590801239,
        -0.9995810985565186,
        -0.9858671426773071
      ],
      "type": "VEC3"
    },
    {
      "bufferView": 1,
      "byteOffset": 91648,
      "componentType": 5126,
      "count": 2176,
      "max": [
        0.9992799758911133,
        0.9992499947547913
      ],
      "min": [
        0.002580000087618828,
        0.0012700000079348683
      ],
      "type": "VEC2"
    },
    {
      "bufferView": 0,
      "byteOffset": 269568,
      "componentType": 5125,
      "count": 12288,
      "type": "SCALAR"
    },
    {
      "bufferView": 2,
      "byteOffset": 374784,
      "componentType": 5126,
      "count": 2176,
      "max": [
        9.906570434570313,
        9.752309799194336,
        7.594319820404053
      ],
      "min": [
        -9.63683032989502,
        -9.337610244750977,
        -7.599629878997803
      ],
      "type": "VEC3"
    },
    {
      "bufferView": 2,
      "byteOffset": 400896,
      "componentType": 5126,
      "count": 2176,
      "max": [
        0.9984613060951233,
        0.9996799230575562,
        0.9710412621498108
      ],
      "min": [
        -0.9997560977935791,
        -0.9982475638389587,
        -0.9797892570495605
      ],
      "type": "VEC3"
    },
    {
      "bufferView": 1,
      "byteOffset": 109056,
      "componentType": 5126,
      "count": 2176,
      "max": [
        0.9992799758911133,
        0.9992499947547913
      ],
      "min": [
        0.002580000087618828,
        0.0012700000079348683
      ],
      "type": "VEC2"
    },
    {
      "bufferView": 0,
      "byteOffset": 318720,
      "componentType": 5125,
      "count": 12288,
      "type": "SCALAR"
    }
  ],
  "asset": {
    "extras": {
      "author": "overevolve (https://sketchfab.com/overevolve)",
      "license": "CC-BY-4.0 (http://creativecommons.org/licenses/by/4.0/)",
      "source": "https://sketchfab.com/3d-models/forever-and-ever-9052fd05bf6b4b888f92bc44604dd9d5",
      "title": "Forever and Ever"
    },
    "generator": "Sketchfab-12.65.0",
    "version": "2.0"
  },
  "bufferViews": [
    {
      "buffer": 0,
      "byteLength": 367872,
      "name": "floatBufferViews",
      "target": 34963
    },
    {
      "buffer": 0,
      "byteLength": 126464,
      "byteOffset": 367872,
      "byteStride": 8,
      "name": "floatBufferViews",
      "target": 34962
    },
    {
      "buffer": 0,
      "byteLength": 427008,
      "byteOffset": 494336,
      "byteStride": 12,
      "name": "floatBufferViews",
      "target": 34962
    }
  ],
  "buffers": [
    {
      "byteLength": 921344,
      "uri": "scene.bin"
    }
  ],
  "images": [
    {
      "uri": "textures/RedWave_baseColor.png"
    },
    {
      "uri": "textures/RedWave_emissive.png"
    },
    {
      "uri": "textures/BlueWave_baseColor.png"
    },
    {
      "uri": "textures/BlueWave_emissive.png"
    }
  ],
  "materials": [
    {
      "alphaMode": "BLEND",
      "doubleSided": true,
      "emissiveFactor": [
        1.0,
        1.0,
        1.0
      ],
      "emissiveTexture": {
        "index": 1
      },
      "name": "RedWave",
      "pbrMetallicRoughness": {
        "baseColorTexture": {
          "index": 0
        },
        "metallicFactor": 0.0
      }
    },
    {
      "alphaMode": "BLEND",
      "doubleSided": true,
      "emissiveFactor": [
        0.579060285519331,
        0.579060285519331,
        0.579060285519331
      ],
      "emissiveTexture": {
        "index": 3
      },
      "name": "BlueWave",
      "pbrMetallicRoughness": {
        "baseColorFactor": [
          1.0,
          1.0,
          1.0,
          0.8202990996531951
        ],
        "baseColorTexture": {
          "index": 2
        },
        "metallicFactor": 0.0
      }
    },
    {
      "doubleSided": true,
      "emissiveFactor": [
        0.4493009064693027,
        0.8079620190774567,
        1.0
      ],
      "name": "supernova_core",
      "pbrMetallicRoughness": {
        "baseColorFactor": [
          0.0,
          0.026924470269346412,
          0.40794488754388,
          1.0
        ],
        "metallicFactor": 0.0
      }
    }
  ],
  "meshes": [
    {
      "name": "Supernova_RingWave.000_0",
      "primitives": [
        {
          "attributes": {
            "NORMAL": 1,
            "POSITION": 0,
            "TEXCOORD_0": 2
          },
          "indices": 3,
          "material": 0,
          "mode": 4
        }
      ]
    },
    {
      "name": "Supernova_RingWave.008_0",
      "primitives": [
        {
          "attributes": {
            "NORMAL": 5,
            "POSITION": 4,
            "TEXCOORD_0": 6
          },
          "indices": 7,
          "material": 0,
          "mode": 4
        }
      ]
    },
    {
      "name": "Supernova_Core_0",
      "primitives": [
        {
          "attributes": {
            "NORMAL": 9,
            "POSITION": 8
          },
          "indices": 10,
          "material": 2,
          "mode": 4
        }
      ]
    },
    {
      "name": "Supernova_RingWave.001_0",
      "primitives": [
        {
          "attributes": {
            "NORMAL": 12,
            "POSITION": 11,
            "TEXCOORD_0": 13
          },
          "indices": 14,
          "material": 1,
          "mode": 4
        }
      ]
    },
    {
      "name": "Supernova_RingWave.002_0",
      "primitives": [
        {
          "attributes": {
            "NORMAL": 16,
            "POSITION": 15,
            "TEXCOORD_0": 17
          },
          "indices": 18,
          "material": 1,
          "mode": 4
        }
      ]
    },
    {
      "name": "Supernova_RingWave.004_0",
      "primitives": [
        {
          "attributes": {
            "NORMAL": 20,
            "POSITION": 19,
            "TEXCOORD_0": 21
          },
          "indices": 22,
          "material": 1,
          "mode": 4
        }
      ]
    },
    {
      "name": "Supernova_RingWave.006_0",
      "primitives": [
        {
          "attributes": {
            "NORMAL": 24,
            "POSITION": 23,
            "TEXCOORD_0": 25
          },
          "indices": 26,
          "material": 1,
          "mode": 4
        }
      ]
    },
    {
      "name": "Supernova_RingWave.009_0",
      "primitives": [
        {
          "attributes": {
            "NORMAL": 28,
            "POSITION": 27,
            "TEXCOORD_0": 29
          },
          "indices": 30,
          "material": 0,
          "mode": 4
        }
      ]
    },
    {
      "name": "Supernova_RingWave.003_0",
      "primitives": [
        {
          "attributes": {
            "NORMAL": 32,
            "POSITION": 31,
            "TEXCOORD_0": 33
          },
          "indices": 34,
          "material": 0,
          "mode": 4
        }
      ]
    }
  ],
  "nodes": [
    {
      "children": [
        1
      ],
      "matrix": [
        0.7189124822616577,
        0.0,
        0.0,
        0.0,
        0.0,
        1.5963063809946337e-16,
        -0.7189124822616577,
        0.0,
        0.0,
        0.7189124822616577,
        1.5963063809946337e-16,
        0.0,
        0.0,
        0.0,
        0.0,
        1.0
      ],
      "name": "Sketchfab_model"
    },
    {
      "children": [
        2,
        4,
        6,
        8,
        10,
        12,
        14,
        16,
        18
      ],
      "name": "Root"
    },
    {
      "children": [
        3
      ],
      "matrix": [
        0.04755000000000001,
        -0.19484000000000004,
        -0.04025000000000001,
        0.0,
        0.16050000000000003,
        0.013110000000000002,
        0.12614,
        0.0,
        -0.11757000000000002,
        -0.06091000000000001,
        0.15593000000000004,
        0.0,
        16.5,
        1.83,
        19.232850000000003,
        1.0
      ],
      "name": "Supernova_RingWave.000"
    },
    {
      "mesh": 0,
      "name": "Supernova_RingWave.000_0"
    },
    {
      "children": [
        5
      ],
      "matrix": [
        0.10992000000000002,
        0.003060000000000001,
        0.12841000000000002,
        0.0,
        0.09607000000000003,
        0.11022000000000003,
        -0.08487000000000001,
        0.0,
        -0.08525000000000002,
        0.12815,
        0.06992000000000002,
        0.0,
        16.5,
        1.83,
        19.232850000000003,
        1.0
      ],
      "name": "Supernova_RingWave.008"
    },
    {
      "mesh": 1,
      "name": "Supernova_RingWave.008_0"
    },
    {
      "children": [
        7
      ],
      "matrix": [
        0.5,
        0.0,
        0.0,
        0.0,
        0.0,
        0.5,
        0.0,
        0.0,
        0.0,
        0.0,
        0.5,
        0.0,
        16.5,
        1.83,
        19.23284,
        1.0
      ],
      "name": "Supernova_Core"
    },
    {
      "mesh": 2,
      "name": "Supernova_Core_0"
    },
    {
      "children": [
        9
      ],
      "matrix": [
        0.10392000000000001,
        0.04243000000000001,
        0.04243000000000001,
        0.0,
        -0.06000000000000001,
        0.07348,
        0.07348,
        0.0,
        -0.0,
        -0.08485000000000001,
        0.08485000000000001,
        0.0,
        16.5,
        1.83,
        19.23284,
        1.0
      ],
      "name": "Supernova_RingWave.001"
    },
    {
      "mesh": 3,
      "name": "Supernova_RingWave.001_0"
    },
    {
      "children": [
        11
      ],
      "matrix": [
        -0.14,
        -0.0,
        0.0,
        0.0,
        0.0,
        -0.09899000000000004,
        0.09899000000000004,
        0.0,
        -0.0,
        0.09899000000000004,
        0.09899000000000004,
        0.0,
        16.5,
        1.83,
        19.23284,
        1.0
      ],
      "name": "Supernova_RingWave.002"
    },
    {
      "mesh": 4,
      "name": "Supernova_RingWave.002_0"
    },
    {
      "children": [
        13
      ],
      "matrix": [
        0.06061000000000002,
        -0.017340000000000005,
        0.036270000000000004,
        0.0,
        -0.022140000000000003,
        0.040380000000000006,
        0.05629000000000001,
        0.0,
        -0.03355000000000001,
        -0.05795000000000001,
        0.028370000000000006,
        0.0,
        16.5,
        1.83,
        19.23284,
        1.0
      ],
      "name": "Supernova_RingWave.004"
    },
    {
      "mesh": 5,
      "name": "Supernova_RingWave.004_0"
    },
    {
      "children": [
        15
      ],
      "matrix": [
        0.13746000000000003,
        0.0,
        0.0,
        0.0,
        0.0,
        0.13746000000000003,
        0.0,
        0.0,
        0.0,
        0.0,
        0.13746000000000003,
        0.0,
        16.5,
        1.83,
        19.232850000000003,
        1.0
      ],
      "name": "Supernova_RingWave.006"
    },
    {
      "mesh": 6,
      "name": "Supernova_RingWave.006_0"
    },
    {
      "children": [
        17
      ],
      "matrix": [
        0.13777,
        0.018570000000000003,
        -0.12351000000000001,
        0.0,
        0.04145000000000001,
        -0.18027,
        0.01913,
        0.0,
        -0.11782000000000002,
        -0.04171000000000001,
        -0.13770000000000002,
        0.0,
        16.5,
        1.83,
        19.232850000000003,
        1.0
      ],
      "name": "Supernova_RingWave.009"
    },
    {
      "mesh": 7,
      "name": "Supernova_RingWave.009_0"
    },
    {
      "children": [
        19
      ],
      "matrix": [
        -0.14596000000000003,
        0.16140000000000004,
        0.057260000000000005,
        0.0,
        -0.031000000000000007,
        -0.09889000000000003,
        0.19973000000000005,
        0.0,
        0.16842000000000004,
        0.12167000000000001,
        0.08638000000000001,
        0.0,
        16.5,
        1.83,
        19.232850000000003,
        1.0
      ],
      "name": "Supernova_RingWave.003"
    },
    {
      "mesh": 8,
      "name": "Supernova_RingWave.003_0"
    }
  ],
  "samplers": [
    {
      "magFilter": 9729,
      "minFilter": 9987,
      "wrapS": 10497,
      "wrapT": 10497
    }
  ],
  "scene": 0,
  "scenes": [
    {
      "name": "Sketchfab_Scene",
      "nodes": [
        0
      ]
    }
  ],
  "textures": [
    {
      "sampler": 0,
      "source": 0
    },
    {
      "sampler": 0,
      "source": 1
    },
    {
      "sampler": 0,
      "source": 2
    },
    {
      "sampler": 0,
      "source": 3
    }
  ]
}
